<svg width="135" height="42" viewBox="0 0 135 42" fill="none" xmlns="http://www.w3.org/2000/svg">
<g clip-path="url(#clip0_1295_3024)">
<path opacity="0.4" d="M-24.8074 56L-8.56177 34.007C-7.82513 33.0097 -6.36797 32.9161 -5.50972 33.8108L-0.419035 39.118C0.325632 39.8943 1.55099 39.9425 2.35437 39.2271L9.11061 33.2108C9.83353 32.567 10.9137 32.5334 11.6753 33.131L14.4157 35.2812C15.314 35.9861 16.6191 35.7971 17.2805 34.8663L24.3165 24.966C25.0606 23.9189 26.5848 23.8348 27.4396 24.7936L36.1689 34.585C37.0563 35.5803 38.6508 35.4449 39.3577 34.3142L50.2022 16.9669C50.9369 15.7917 52.6152 15.7018 53.4711 16.7919L60.4516 25.6818C61.3097 26.7746 62.9933 26.681 63.7249 25.4996L70.1481 15.1283C70.3797 14.7543 70.7281 14.4672 71.1393 14.3112L102.438 2.4431C103.004 2.22824 103.638 2.28188 104.16 2.58894L123.251 13.8096C124.003 14.2515 124.954 14.1554 125.602 13.5722L136.921 3.38766C137.719 2.67001 138.94 2.70958 139.69 3.47734L150.501 14.5517L163.159 2.10326L174.882 8.60345L185.113 -1.52164L217.228 -5.89104L243.132 8.60345L263.151 -5.89104L272.533 -27.3071L301.505 -45" stroke="#FF7342" stroke-width="3" stroke-linecap="round" stroke-linejoin="round"/>
</g>
<defs>
<clipPath id="clip0_1295_3024">
<rect width="135" height="42" fill="white"/>
</clipPath>
</defs>
</svg>
