<svg width="32" height="32" viewBox="0 0 32 32" fill="none" xmlns="http://www.w3.org/2000/svg">
<path opacity="0.6" d="M15.5042 29.1166C12.5998 27.2364 9.89985 25.0194 7.4538 22.5061C5.72697 20.7117 4.40818 18.5206 3.5982 16.1004C2.15093 11.3803 3.83564 5.98597 8.53924 4.38453C11.0219 3.56737 13.722 4.06901 15.7982 5.73311C17.8751 4.07087 20.5743 3.5694 23.0571 4.38453C27.7607 5.98597 29.4567 11.3803 28.0095 16.1004C27.206 18.5183 25.8951 20.7092 24.1765 22.5061C21.7282 25.0166 19.0286 27.2334 16.1261 29.1166L15.8095 29.3333L15.5042 29.1166Z" fill="#FE5A33"/>
<path d="M15.803 29.3333L15.5041 29.1166C12.5961 27.2365 9.89242 25.0195 7.4424 22.5061C5.7074 20.7141 4.38075 18.5229 3.56419 16.1003C2.12823 11.3803 3.81294 5.98593 8.51654 4.38449C10.9992 3.56734 13.7349 4.06935 15.803 5.74739V29.3333Z" fill="#FE5A33"/>
<path d="M23.7152 13.3323C23.4596 13.3151 23.2217 13.1812 23.057 12.9621C22.8923 12.743 22.8154 12.4579 22.8444 12.1735C22.872 11.2371 22.3636 10.3847 21.5796 10.053C21.0824 9.91079 20.7813 9.34649 20.9057 8.78998C21.0237 8.24242 21.5129 7.90196 22.0046 8.02521C22.0667 8.036 22.1265 8.05957 22.1809 8.09473C23.7529 8.72877 24.7707 10.4352 24.6897 12.301C24.6871 12.5838 24.5819 12.8533 24.3982 13.0477C24.2145 13.2422 23.968 13.3449 23.7152 13.3323Z" fill="#FE5A33"/>
</svg>
