<svg width="32" height="32" viewBox="0 0 32 32" fill="none" xmlns="http://www.w3.org/2000/svg">
<path d="M13.9785 29C18.8872 29 21.9727 25.7391 21.9727 20.5057C21.9727 15.2723 18.8872 12 13.9785 12C9.05812 12 5.97266 15.2723 5.97266 20.5057C5.97266 25.7391 9.05812 29 13.9785 29ZM13.9785 26.4916C10.9632 26.4916 9.05812 24.1657 9.05812 20.5057C9.05812 16.8343 10.9632 14.5084 13.9785 14.5084C16.9822 14.5084 18.8989 16.8343 18.8989 20.5057C18.8989 24.1657 16.9822 26.4916 13.9785 26.4916Z" fill="#327CED"/>
<path d="M13.9785 26.4916C10.9632 26.4916 9.05812 24.1657 9.05812 20.5057C9.05812 16.8343 10.9632 14.5084 13.9785 14.5084C16.9822 14.5084 18.8989 16.8343 18.8989 20.5057C18.8989 24.1657 16.9822 26.4916 13.9785 26.4916Z" fill="#327CED" fill-opacity="0.35"/>
<path d="M22.0195 13H28.2539C28.7852 13 29.1133 12.6719 29.1133 12.1797C29.1133 11.6797 28.7852 11.3516 28.2539 11.3516H23.7539V11.3125L26.3398 8.76562C28.207 6.9375 28.8398 6.04688 28.8398 4.72656C28.8398 2.83594 27.2852 1.5 25.0273 1.5C22.832 1.5 21.4805 2.78906 21.1758 4.00781C21.1367 4.14062 21.1133 4.28125 21.1133 4.42969C21.1133 4.92969 21.4414 5.26562 21.9883 5.26562C22.4492 5.26562 22.6836 5.05469 22.8867 4.64844C23.2852 3.63281 23.9961 3.11719 25.0117 3.11719C26.0977 3.11719 26.8711 3.84375 26.8711 4.85156C26.8711 5.71094 26.5117 6.28125 25.0742 7.70312L21.6289 11.1172C21.1992 11.5234 21.0664 11.7578 21.0664 12.1484C21.0664 12.6562 21.3945 13 22.0195 13Z" fill="#327CED"/>
</svg>
