<svg width="32" height="32" viewBox="0 0 32 32" fill="none" xmlns="http://www.w3.org/2000/svg">
<path fill-rule="evenodd" clip-rule="evenodd" d="M8.06757 16.9629C7.2894 16.9629 6.65945 17.633 6.65945 18.4607L6.27124 25.6962C6.27124 26.751 7.07588 27.605 8.06757 27.605C9.05926 27.605 9.86214 26.751 9.86214 25.6962L9.4757 18.4607C9.4757 17.633 8.84575 16.9629 8.06757 16.9629Z" fill="#008A5E" fill-opacity="0.3"/>
<path fill-rule="evenodd" clip-rule="evenodd" d="M9.98961 2.39771C9.98961 2.39771 9.58552 1.96226 9.33495 1.7727C8.97145 1.4799 8.52325 1.3335 8.07681 1.3335C7.57568 1.3335 7.10983 1.49866 6.73045 1.81023C6.66163 1.88343 6.36871 2.15934 6.12696 2.41648C4.60943 3.91989 2.12668 7.84453 1.36792 9.89975C1.24793 10.2113 0.988537 10.9996 0.972656 11.4219C0.972656 11.8236 1.05736 12.2102 1.23028 12.5762C1.47203 13.0342 1.85141 13.4021 2.29961 13.6029C2.61018 13.7324 3.54011 13.9333 3.55775 13.9333C4.57591 14.136 6.23107 14.2448 8.05917 14.2448C9.8008 14.2448 11.3871 14.136 12.4212 13.9708C12.4388 13.952 13.5929 13.7512 13.9899 13.5297C14.7134 13.1262 15.1633 12.3379 15.1633 11.4951V11.4219C15.1457 10.872 14.6957 9.71581 14.6798 9.71581C13.9211 7.77133 11.5583 3.93866 9.98961 2.39771Z" fill="#008A5E"/>
<path fill-rule="evenodd" clip-rule="evenodd" d="M24.0334 14.1487C24.8116 14.1487 25.4415 13.4786 25.4415 12.6509L25.828 5.41521C25.828 4.36036 25.0251 3.50635 24.0334 3.50635C23.0417 3.50635 22.2371 4.36036 22.2371 5.41521L22.6253 12.6509C22.6253 13.4786 23.2552 14.1487 24.0334 14.1487Z" fill="#008A5E" fill-opacity="0.3"/>
<path fill-rule="evenodd" clip-rule="evenodd" d="M30.8703 18.5348C30.6286 18.0768 30.2492 17.7108 29.801 17.5081C29.4904 17.3786 28.5587 17.1778 28.5428 17.1778C27.5247 16.9751 25.8695 16.8662 24.0414 16.8662C22.2998 16.8662 20.7134 16.9751 19.6794 17.1402C19.6618 17.159 18.5077 17.3617 18.1107 17.5813C17.3855 17.9849 16.9373 18.7732 16.9373 19.6178V19.691C16.9549 20.241 17.4031 21.3953 17.4207 21.3953C18.1795 23.3398 20.5405 27.1745 22.111 28.7136C22.111 28.7136 22.5151 29.149 22.7656 29.3367C23.1274 29.6314 23.5756 29.7778 24.0255 29.7778C24.5249 29.7778 24.989 29.6126 25.3701 29.3011C25.439 29.2279 25.7319 28.9519 25.9736 28.6967C27.4894 27.1914 29.9739 23.2666 30.7309 21.2132C30.8527 20.9017 31.112 20.1115 31.1279 19.691C31.1279 19.2875 31.0432 18.9008 30.8703 18.5348Z" fill="#008A5E"/>
</svg>
