<svg width="32" height="32" viewBox="0 0 32 32" fill="none" xmlns="http://www.w3.org/2000/svg">
<path d="M13.8425 22.1008L23.5654 5.26022C24.2929 4.00015 23.8597 2.38307 22.5995 1.65554C21.3394 0.927981 19.7224 1.36135 18.9949 2.62141L9.27197 19.4619C7.37186 19.4542 5.62741 20.4438 4.66524 22.0965C3.9748 23.2827 3.78179 24.6868 4.12166 26.0502C4.46174 27.4141 5.29185 28.5627 6.45897 29.2843C6.50612 29.3134 6.55336 29.3417 6.6011 29.3693C7.8042 30.0638 9.20053 30.2594 10.5518 29.9191C11.9573 29.5651 13.1302 28.6791 13.8546 27.4243C14.8149 25.7609 14.8033 23.7489 13.8425 22.1008ZM10.3071 28.9473C9.16744 29.2344 7.98703 29.0514 6.98604 28.4319C6.04247 27.8486 5.37055 26.9166 5.09404 25.8077C4.81758 24.6989 4.97286 23.56 5.53136 22.6006C6.35455 21.1865 7.88481 20.371 9.52488 20.4724C9.71466 20.4842 9.89466 20.3874 9.9897 20.2228L19.8626 3.12241C20.3139 2.34083 21.3169 2.07207 22.0984 2.52332C22.88 2.97457 23.1488 3.97757 22.6975 4.75916L12.8246 21.8596C12.7295 22.0243 12.7358 22.2285 12.8408 22.3869C13.7524 23.7621 13.8082 25.5002 12.9867 26.9232C12.399 27.9413 11.4474 28.6601 10.3071 28.9473Z" fill="#FE5A33"/>
<path d="M11.256 22.3058L20.111 6.96844C20.2494 6.72882 20.1673 6.42235 19.9276 6.28398C19.688 6.14564 19.3815 6.22771 19.2431 6.46738L10.3881 21.8047C8.9578 21.2571 7.29684 21.8145 6.50725 23.1821C5.63241 24.6974 6.15346 26.642 7.66873 27.5168C9.184 28.3917 11.1286 27.8706 12.0035 26.3554C12.7932 24.9878 12.4454 23.2707 11.256 22.3058ZM8.16987 26.6491C7.13308 26.0505 6.77657 24.72 7.37517 23.6832C7.97376 22.6464 9.30426 22.2899 10.3411 22.8885C11.3778 23.4871 11.7344 24.8176 11.1358 25.8544C10.5372 26.8912 9.20667 27.2477 8.16987 26.6491Z" fill="#FE5A33"/>
<path d="M21.4549 18.9685L19.1407 17.6324C18.9011 17.494 18.5946 17.5761 18.4563 17.8158C18.3179 18.0554 18.4 18.3619 18.6397 18.5002L20.9539 19.8364C21.1935 19.9747 21.5 19.8926 21.6384 19.653C21.7767 19.4133 21.6947 19.1069 21.4549 18.9685Z" fill="#FE5A33"/>
<path d="M21.8654 16.1196L20.4769 15.3179C20.2373 15.1796 19.9308 15.2616 19.7924 15.5013C19.6541 15.7409 19.7362 16.0474 19.9758 16.1858L21.3643 16.9874C21.604 17.1258 21.9104 17.0437 22.0488 16.804C22.1872 16.5644 22.105 16.2579 21.8654 16.1196Z" fill="#FE5A33"/>
<path d="M24.1268 14.3401L21.8126 13.0039C21.573 12.8656 21.2665 12.9477 21.1281 13.1873C20.9898 13.427 21.0719 13.7334 21.3115 13.8718L23.6258 15.2079C23.8654 15.3463 24.1719 15.2642 24.3102 15.0245C24.4486 14.7849 24.3666 14.4785 24.1268 14.3401Z" fill="#FE5A33"/>
<path d="M24.5373 11.4912L23.1488 10.6895C22.9092 10.5512 22.6027 10.6332 22.4643 10.8729C22.326 11.1125 22.408 11.419 22.6477 11.5574L24.0362 12.359C24.2758 12.4974 24.5823 12.4153 24.7207 12.1756C24.8591 11.9359 24.7769 11.6295 24.5373 11.4912Z" fill="#FE5A33"/>
<path d="M26.7994 9.71165L24.4852 8.37553C24.2456 8.23719 23.9391 8.31926 23.8007 8.55893C23.6624 8.79855 23.7445 9.10502 23.9841 9.24339L26.2984 10.5795C26.538 10.7179 26.8445 10.6358 26.9828 10.3961C27.1212 10.1565 27.0391 9.85003 26.7994 9.71165Z" fill="#FE5A33"/>
<path fill-rule="evenodd" clip-rule="evenodd" d="M10.3071 28.9473C9.16744 29.2344 7.98703 29.0514 6.98604 28.4319C6.04247 27.8486 5.37055 26.9166 5.09404 25.8077C4.81758 24.6989 4.97286 23.56 5.53136 22.6006C6.35455 21.1865 7.88481 20.371 9.52488 20.4724C9.71466 20.4842 9.89466 20.3874 9.9897 20.2228L19.8626 3.12241C20.3139 2.34083 21.3169 2.07207 22.0984 2.52332C22.88 2.97457 23.1488 3.97757 22.6975 4.75916L12.8246 21.8596C12.7295 22.0243 12.7358 22.2285 12.8408 22.3869C13.7524 23.7621 13.8082 25.5002 12.9867 26.9232C12.399 27.9413 11.4474 28.6601 10.3071 28.9473ZM20.111 6.96844L11.256 22.3058C12.4454 23.2707 12.7932 24.9878 12.0035 26.3554C11.1286 27.8706 9.184 28.3917 7.66873 27.5168C6.15346 26.642 5.63241 24.6974 6.50725 23.1821C7.29684 21.8145 8.9578 21.2571 10.3881 21.8047L19.2431 6.46738C19.3815 6.22771 19.688 6.14564 19.9276 6.28398C20.1673 6.42235 20.2494 6.72882 20.111 6.96844Z" fill="#FE9C85"/>
<path d="M8.16987 26.6491C7.13308 26.0505 6.77657 24.72 7.37517 23.6832C7.97376 22.6464 9.30426 22.2899 10.3411 22.8885C11.3778 23.4871 11.7344 24.8176 11.1358 25.8544C10.5372 26.8912 9.20667 27.2477 8.16987 26.6491Z" fill="#FE9C85"/>
</svg>
