<svg width="100" height="40" viewBox="0 0 100 40" fill="none" xmlns="http://www.w3.org/2000/svg">
<g clip-path="url(#clip0_169_1308)">
<rect width="100" height="40" rx="10" fill="#040415"/>
<path d="M27.8742 12.8H36.0342V14.56H32.8822V24H31.0422V14.56H27.8742V12.8ZM42.6133 22.992C41.8027 23.8027 40.8053 24.208 39.6213 24.208C38.4373 24.208 37.44 23.8027 36.6293 22.992C35.808 22.1707 35.3973 21.1733 35.3973 20C35.3973 18.8267 35.808 17.8293 36.6293 17.008C37.44 16.1973 38.4373 15.792 39.6213 15.792C40.8053 15.792 41.8027 16.1973 42.6133 17.008C43.4347 17.8293 43.8453 18.8267 43.8453 20C43.8453 21.1733 43.4347 22.1707 42.6133 22.992ZM37.1253 20C37.1253 20.7253 37.3653 21.328 37.8453 21.808C38.3253 22.288 38.9173 22.528 39.6213 22.528C40.3253 22.528 40.9173 22.288 41.3973 21.808C41.8773 21.328 42.1173 20.7253 42.1173 20C42.1173 19.2747 41.8773 18.672 41.3973 18.192C40.9173 17.712 40.3253 17.472 39.6213 17.472C38.9173 17.472 38.3253 17.712 37.8453 18.192C37.3653 18.672 37.1253 19.2747 37.1253 20ZM51.7438 17.136V12.8H53.4718V24H51.7438V22.848C51.0932 23.7547 50.1598 24.208 48.9438 24.208C47.8452 24.208 46.9065 23.8027 46.1278 22.992C45.3492 22.1813 44.9598 21.184 44.9598 20C44.9598 18.816 45.3492 17.8187 46.1278 17.008C46.9065 16.1973 47.8452 15.792 48.9438 15.792C50.1598 15.792 51.0932 16.24 51.7438 17.136ZM47.4078 21.84C47.8878 22.32 48.4905 22.56 49.2158 22.56C49.9412 22.56 50.5438 22.32 51.0238 21.84C51.5038 21.3493 51.7438 20.736 51.7438 20C51.7438 19.264 51.5038 18.656 51.0238 18.176C50.5438 17.6853 49.9412 17.44 49.2158 17.44C48.4905 17.44 47.8878 17.6853 47.4078 18.176C46.9278 18.656 46.6878 19.264 46.6878 20C46.6878 20.7253 46.9278 21.3387 47.4078 21.84ZM61.822 17.136V16H63.55V24H61.822V22.848C61.1713 23.7547 60.238 24.208 59.022 24.208C57.9233 24.208 56.9846 23.8027 56.206 22.992C55.4273 22.1813 55.038 21.184 55.038 20C55.038 18.816 55.4273 17.8187 56.206 17.008C56.9846 16.1973 57.9233 15.792 59.022 15.792C60.238 15.792 61.1713 16.24 61.822 17.136ZM57.486 21.84C57.966 22.32 58.5686 22.56 59.294 22.56C60.0193 22.56 60.622 22.32 61.102 21.84C61.582 21.3493 61.822 20.736 61.822 20C61.822 19.264 61.582 18.656 61.102 18.176C60.622 17.6853 60.0193 17.44 59.294 17.44C58.5686 17.44 57.966 17.6853 57.486 18.176C57.006 18.656 56.766 19.264 56.766 20C56.766 20.7253 57.006 21.3387 57.486 21.84ZM68.9081 21.808L70.9561 16H72.7961L69.7241 24.256C68.9561 26.3253 67.6547 27.3067 65.8201 27.2V25.584C66.3534 25.616 66.7854 25.504 67.1161 25.248C67.4467 24.992 67.7241 24.5813 67.9481 24.016L68.0281 23.856L64.6361 16H66.5241L68.9081 21.808Z" fill="white"/>
</g>
<defs>
<clipPath id="clip0_169_1308">
<rect width="100" height="40" fill="white"/>
</clipPath>
</defs>
</svg>
