<svg width="32" height="32" viewBox="0 0 32 32" fill="none" xmlns="http://www.w3.org/2000/svg">
<path d="M16.313 20.8966C16.313 21.4655 15.8435 21.931 15.2696 21.931H5.04348C4.46957 21.931 4 21.4655 4 20.8966C4 20.3276 4.46957 19.8621 5.04348 19.8621H15.2696C15.8435 19.8621 16.313 20.3276 16.313 20.8966ZM26.9565 19.8621H26.0696C25.4957 19.8621 25.0261 20.3276 25.0261 20.8966C25.0261 21.4655 25.4957 21.931 26.0696 21.931H26.9565C27.5304 21.931 28 21.4655 28 20.8966C28 20.3276 27.5304 19.8621 26.9565 19.8621ZM7.73043 12.0776C7.73043 10.3707 9.13913 9 10.8609 9C12.5826 9 13.9913 10.3966 13.9913 12.0776C13.9913 13.7586 12.5826 15.1552 10.8609 15.1552C9.13913 15.1552 7.73043 13.7845 7.73043 12.0776ZM9.81739 12.0776C9.81739 12.6466 10.287 13.0862 10.8609 13.0862C11.4348 13.0862 11.9043 12.6207 11.9043 12.0776C11.9043 11.5345 11.4348 11.069 10.8609 11.069C10.287 11.069 9.81739 11.5345 9.81739 12.0776ZM23.6696 20.9224C23.6696 22.6293 22.2609 24 20.5391 24C18.8174 24 17.4087 22.6034 17.4087 20.9224C17.4087 19.2414 18.8174 17.8448 20.5391 17.8448C22.2609 17.819 23.6696 19.2155 23.6696 20.9224ZM21.5826 20.9224C21.5826 20.3534 21.113 19.9138 20.5391 19.9138C19.9652 19.9138 19.4957 20.3793 19.4957 20.9224C19.4957 21.4655 19.9652 21.931 20.5391 21.931C21.113 21.931 21.5826 21.4655 21.5826 20.9224ZM5.04348 13.1379H5.64348C6.21739 13.1379 6.68696 12.6724 6.68696 12.1034C6.68696 11.5345 6.21739 11.069 5.64348 11.069H5.04348C4.46957 11.069 4 11.5345 4 12.1034C4 12.6724 4.46957 13.1379 5.04348 13.1379ZM28 12.1034C28 11.5345 27.5304 11.069 26.9565 11.069H16.3391C15.7652 11.069 15.2957 11.5345 15.2957 12.1034C15.2957 12.6724 15.7652 13.1379 16.3391 13.1379H26.9565C27.5304 13.1379 28 12.6724 28 12.1034Z" fill="#327CED"/>
</svg>
